<svg width="256" height="256" viewBox="0 0 256 256" fill="none" xmlns="http://www.w3.org/2000/svg">
<path d="M122.155 178.81L122.162 178.81L122.168 178.81C122.296 178.813 122.437 178.816 122.577 178.816C126.562 178.816 130.391 177.235 133.217 174.406L231.806 75.8145C237.684 69.9388 237.684 60.4092 231.806 54.5308C225.933 48.655 216.398 48.6549 210.525 54.5306C210.525 54.5307 210.525 54.5308 210.525 54.5308L123.188 141.865L97.2202 112.809C91.6821 106.611 82.1672 106.072 75.9692 111.617C69.7718 117.156 69.2393 126.67 74.7775 132.867L75.4753 132.244L74.7775 132.867L111.355 173.795L111.356 173.795C114.113 176.877 118.016 178.692 122.155 178.81Z" fill="white" stroke="white" stroke-width="2"/>
<path d="M198.9 39.461L198.9 39.4605C203.204 32.3512 200.935 23.0984 193.825 18.791C173.981 6.76176 151.167 0.406586 127.857 0.406586C57.5798 0.406586 0.406586 57.5798 0.406586 127.857C0.406586 198.133 57.5798 255.307 127.857 255.307C198.133 255.307 255.307 198.133 255.307 127.857C255.307 122.459 254.964 117.016 254.287 111.672C253.243 103.428 245.715 97.5819 237.466 98.6325C229.22 99.6773 223.38 107.208 224.428 115.456C224.942 119.548 225.207 123.721 225.207 127.857C225.207 181.534 181.534 225.207 127.857 225.207C74.1787 225.207 30.5066 181.534 30.5066 127.857C30.5066 74.1787 74.1787 30.5066 127.857 30.5066C145.667 30.5066 163.087 35.3577 178.227 44.5325C185.337 48.8431 194.59 46.57 198.9 39.461Z" fill="white" stroke="white" stroke-width="2"/>
</svg>
